# xmcd
#
# Track frame offsets:
# 150
# 17070
# 40030
# 72330
# 91819
# 100851
# 116703
# 132798
# 150753
# 161641
# 177209
# 194568
# 211224
#
# Disc length: 3075 seconds
#
# Revision: 0
# Processed by: cddbd v1.5PL3 Copyright (c) Steve Scherf et al.
# Submitted via: Audion 3.0.2 (http://www.panic.com/audion/)
#
DISCID=a20c010d
DTITLE=variés - L'auberge espagnole
DYEAR=1900
DGENRE=
TTITLE0=piano
TTITLE1=2
TTITLE2=3
TTITLE3=4
TTITLE4=5
TTITLE5=6
TTITLE6=7
TTITLE7=8
TTITLE8=9
TTITLE9=10
TTITLE10=11
TTITLE11=12
TTITLE12=13
EXTD=
EXTT0=
EXTT1=
EXTT2=
EXTT3=
EXTT4=
EXTT5=
EXTT6=
EXTT7=
EXTT8=
EXTT9=
EXTT10=
EXTT11=
EXTT12=
PLAYORDER=
